<svg width="58" height="58" viewBox="0 0 58 58" fill="none" xmlns="http://www.w3.org/2000/svg">
<mask id="mask0_510_83" style="mask-type:luminance" maskUnits="userSpaceOnUse" x="3" y="0" width="52" height="58">
<path d="M3.625 0.773315H54.375V57.6133H3.625V0.773315Z" fill="white"/>
</mask>
<g mask="url(#mask0_510_83)">
<g style="mix-blend-mode:exclusion">
<path d="M3.68091 40.3659V18.0872C3.68091 17.5601 3.75039 17.0405 3.88632 16.53C4.02377 16.021 4.22315 15.5376 4.48596 15.08C4.74877 14.6223 5.06596 14.2055 5.43903 13.8309C5.8106 13.4563 6.22445 13.1361 6.67909 12.8702L25.9701 1.73546C26.4293 1.47113 26.9141 1.27176 27.4277 1.13431C27.9397 0.998373 28.4608 0.928894 28.991 0.928894C29.5211 0.928894 30.0422 0.998373 30.5542 1.13431C31.0663 1.27176 31.5511 1.47113 32.0118 1.73546L51.2908 12.8702C51.7514 13.1331 52.1683 13.4518 52.5429 13.8248C52.919 14.1979 53.2392 14.6148 53.505 15.0724C53.7709 15.5301 53.9733 16.0149 54.1107 16.5255C54.2497 17.0375 54.3191 17.5571 54.3191 18.0872V40.3659C54.3191 40.896 54.2497 41.4171 54.1122 41.9292C53.9748 42.4397 53.7724 42.9245 53.5065 43.3837C53.2407 43.8413 52.9205 44.2567 52.5444 44.6313C52.1683 45.0044 51.7514 45.3231 51.2908 45.5859L32.0042 56.7297C31.5436 56.9925 31.0572 57.1919 30.5452 57.3279C30.0331 57.4638 29.5136 57.5318 28.9834 57.5318C28.4533 57.5318 27.9322 57.4638 27.4201 57.3279C26.9081 57.1919 26.4217 56.9925 25.9626 56.7297L6.67304 45.5813C6.2169 45.3155 5.80455 44.9953 5.43299 44.6207C5.06143 44.2461 4.74424 43.8308 4.48143 43.3731C4.21862 42.9155 4.02075 42.4321 3.88481 41.9216C3.74888 41.4126 3.68091 40.8945 3.68091 40.3659Z" fill="#DA0941"/>
</g>
</g>
<path d="M32.4679 17.767L26.3265 40.6861" stroke="white" stroke-width="2.71085" stroke-linecap="round"/>
<path d="M21.8452 20.013L10.8931 29.0966" stroke="white" stroke-width="2.72235" stroke-linecap="round"/>
<path d="M21.8286 38.7921L10.9143 29.6616" stroke="white" stroke-width="2.72235" stroke-linecap="round"/>
<path d="M36.9735 38.8177L47.9255 29.7325" stroke="white" stroke-width="2.72235" stroke-linecap="round"/>
<path d="M36.9901 20.0372L47.9044 29.1676" stroke="white" stroke-width="2.72235" stroke-linecap="round"/>
</svg>
